<mxfile host="app.diagrams.net" modified="2023-01-30T10:02:00.505Z" agent="5.0 (Windows NT 10.0; Win64; x64) AppleWebKit/537.36 (KHTML, like Gecko) Chrome/108.0.0.0 Safari/537.36" etag="6tMWtmLS8b1gvmfu7P9Q" version="20.8.13" type="github">
  <diagram name="Page-1" id="edf60f1a-56cd-e834-aa8a-f176f3a09ee4">
    <mxGraphModel dx="989" dy="488" grid="1" gridSize="10" guides="1" tooltips="1" connect="1" arrows="1" fold="1" page="1" pageScale="1" pageWidth="1100" pageHeight="850" background="none" math="0" shadow="0">
      <root>
        <mxCell id="0" />
        <mxCell id="1" parent="0" />
        <mxCell id="dmzFjoc5PFepSdP2atkO-15" value="语料数据采集需求" style="ellipse;whiteSpace=wrap;html=1;shadow=1;" vertex="1" parent="1">
          <mxGeometry x="20" y="100" width="160" height="70" as="geometry" />
        </mxCell>
        <mxCell id="dmzFjoc5PFepSdP2atkO-16" value="" style="endArrow=none;dashed=1;html=1;dashPattern=1 3;strokeWidth=2;rounded=0;" edge="1" parent="1">
          <mxGeometry width="50" height="50" relative="1" as="geometry">
            <mxPoint x="15" y="90" as="sourcePoint" />
            <mxPoint x="185" y="90" as="targetPoint" />
          </mxGeometry>
        </mxCell>
        <mxCell id="dmzFjoc5PFepSdP2atkO-19" value="" style="endArrow=none;dashed=1;html=1;dashPattern=1 3;strokeWidth=2;rounded=0;" edge="1" parent="1">
          <mxGeometry width="50" height="50" relative="1" as="geometry">
            <mxPoint x="190" y="180" as="sourcePoint" />
            <mxPoint x="190" y="90" as="targetPoint" />
          </mxGeometry>
        </mxCell>
        <mxCell id="dmzFjoc5PFepSdP2atkO-20" value="" style="endArrow=none;dashed=1;html=1;dashPattern=1 3;strokeWidth=2;rounded=0;" edge="1" parent="1">
          <mxGeometry width="50" height="50" relative="1" as="geometry">
            <mxPoint x="10" y="180" as="sourcePoint" />
            <mxPoint x="10" y="90" as="targetPoint" />
          </mxGeometry>
        </mxCell>
        <mxCell id="dmzFjoc5PFepSdP2atkO-21" value="" style="endArrow=none;dashed=1;html=1;dashPattern=1 3;strokeWidth=2;rounded=0;" edge="1" parent="1">
          <mxGeometry width="50" height="50" relative="1" as="geometry">
            <mxPoint x="15" y="180" as="sourcePoint" />
            <mxPoint x="185" y="180" as="targetPoint" />
          </mxGeometry>
        </mxCell>
        <mxCell id="dmzFjoc5PFepSdP2atkO-22" value="数据采集方案制定" style="rounded=1;whiteSpace=wrap;html=1;shadow=1;fillColor=#dae8fc;strokeColor=#6c8ebf;" vertex="1" parent="1">
          <mxGeometry x="230" y="117.5" width="120" height="35" as="geometry" />
        </mxCell>
        <mxCell id="dmzFjoc5PFepSdP2atkO-30" value="" style="endArrow=classic;html=1;rounded=0;" edge="1" parent="1">
          <mxGeometry relative="1" as="geometry">
            <mxPoint x="350" y="134.66" as="sourcePoint" />
            <mxPoint x="450" y="134.66" as="targetPoint" />
          </mxGeometry>
        </mxCell>
        <mxCell id="dmzFjoc5PFepSdP2atkO-31" value="发起" style="edgeLabel;resizable=0;html=1;align=center;verticalAlign=middle;shadow=1;" connectable="0" vertex="1" parent="dmzFjoc5PFepSdP2atkO-30">
          <mxGeometry relative="1" as="geometry" />
        </mxCell>
        <mxCell id="dmzFjoc5PFepSdP2atkO-32" value="" style="html=1;whiteSpace=wrap;aspect=fixed;shape=isoRectangle;shadow=1;" vertex="1" parent="1">
          <mxGeometry x="460" y="90" width="150" height="90" as="geometry" />
        </mxCell>
      </root>
    </mxGraphModel>
  </diagram>
</mxfile>
